<svg xmlns="http://www.w3.org/2000/svg" xmlns:xlink="http://www.w3.org/1999/xlink" width="500" zoomAndPan="magnify" viewBox="0 0 375 374.999991" height="500" preserveAspectRatio="xMidYMid meet" version="1.2"><g id="b3dd4dc421"><path style=" stroke:none;fill-rule:nonzero;fill:#4300ff;fill-opacity:1;" d="M 118.199219 256.800781 L 118.199219 315.898438 L 177.300781 315.898438 L 177.300781 256.800781 L 261.449219 256.800781 C 276.601562 256.800781 289.800781 250.648438 299.773438 240.75 C 309.675781 230.851562 315.824219 217.574219 315.824219 202.425781 L 315.824219 113.476562 C 315.824219 98.324219 309.675781 85.125 299.773438 75.148438 C 289.875 65.25 276.601562 59.101562 261.449219 59.101562 L 172.574219 59.101562 C 157.425781 59.101562 144.226562 65.25 134.25 75.148438 C 124.273438 85.050781 118.199219 98.324219 118.199219 113.476562 L 118.199219 197.625 L 0 197.625 L 0 256.726562 L 118.199219 256.726562 Z M 59.101562 197.699219 L 59.101562 113.476562 C 59.101562 82.273438 71.851562 53.925781 92.175781 33.074219 C 113.023438 12.75 141.375 0 172.574219 0 L 261.449219 0 C 292.648438 0 321 12.75 341.851562 33.074219 C 362.25 53.925781 375 82.273438 375 113.476562 L 375 202.351562 C 375 233.550781 362.25 261.898438 341.925781 282.75 C 321.148438 303.074219 292.726562 315.824219 261.523438 315.824219 L 177.300781 315.824219 L 177.300781 375 L 118.199219 375 L 118.199219 315.898438 L 59.101562 315.898438 Z M 235.050781 118.199219 L 199.125 118.199219 C 193.425781 118.199219 187.800781 120.601562 183.976562 124.800781 C 179.699219 128.550781 177.375 134.25 177.375 139.949219 L 177.375 197.625 L 235.050781 197.625 C 240.75 197.625 246.375 195.226562 250.199219 191.023438 C 254.476562 187.273438 256.800781 181.574219 256.800781 175.875 L 256.800781 139.949219 C 256.800781 134.25 254.398438 128.625 250.199219 124.800781 C 246.375 120.601562 240.675781 118.199219 235.050781 118.199219 Z M 235.050781 118.199219 "/><path style="fill:none;stroke-width:1;stroke-linecap:butt;stroke-linejoin:miter;stroke:#09090b;stroke-opacity:1;stroke-miterlimit:4;" d="M -0.000957859 0.498561 L 3.379067 0.501946 " transform="matrix(-0.095427,-0.659802,0.659802,-0.095427,84.690489,144.027413)"/></g></svg>